<?xml version="1.0" encoding="UTF-8"?>
<svg width="59px" height="38px" viewBox="0 0 59 38" version="1.1" xmlns="http://www.w3.org/2000/svg" xmlns:xlink="http://www.w3.org/1999/xlink">
    <title>amex</title>
    <g id="Design" stroke="none" stroke-width="1" fill="none" fill-rule="evenodd">
        <g id="88---Account-&amp;-User---Billing" transform="translate(-413.000000, -1089.000000)" fill-rule="nonzero">
            <g id="visa-copy-2" transform="translate(377.000000, 1078.000000)">
                <g id="amex" transform="translate(36.000000, 11.000000)">
                    <path d="M3.02564103,0 L55.974359,0 C57.6454205,0 59,1.361084 59,3.04 L59,34.96 C59,36.638992 57.6454205,38 55.974359,38 L3.02564103,38 C1.35465513,38 0,36.638992 0,34.96 L0,3.04 C0,1.361084 1.35465513,0 3.02564103,0 L3.02564103,0 Z" id="Path" fill="#2557D6"></path>
                    <path d="M0,18.4013506 L2.83431432,18.4013506 L3.47329529,16.9041516 L4.90384971,16.9041516 L5.54116548,18.4013506 L11.1171487,18.4013506 L11.1171487,17.2567723 L11.6148908,18.4063387 L14.5095306,18.4063387 L15.0072727,17.239736 L15.0072727,18.4014274 L28.8647279,18.4014274 L28.8582942,15.9437495 L29.1263907,15.9437495 C29.3140279,15.9501189 29.3689037,15.966925 29.3689037,16.2680531 L29.3689037,18.4014274 L36.5359813,18.4014274 L36.5359813,17.8293301 C37.1141826,18.1301512 38.0133126,18.4014274 39.1963584,18.4014274 L42.2115735,18.4014274 L42.8568368,16.9042284 L44.2873912,16.9042284 L44.9184247,18.4014274 L50.728822,18.4014274 L50.728822,16.9792802 L51.6088022,18.4014274 L56.2649162,18.4014274 L56.2649162,9 L51.6568658,9 L51.6568658,10.1102755 L51.0118296,9 L46.2833552,9 L46.2833552,10.1102755 L45.6908484,9 L39.3040663,9 C38.2350864,9 37.2953105,9.14496201 36.5361327,9.5489218 L36.5361327,9 L32.1287384,9 L32.1287384,9.5489218 C31.6456046,9.13253012 30.9873981,9 30.2553933,9 L14.1529517,9 L13.0725425,11.4281329 L11.9629924,9 L6.89133636,9 L6.89133636,10.1102755 L6.33410136,9 L2.00875575,9 L0,13.4698028 L0,18.4011971 L0,18.4011971 L0,18.4013506 Z M17.8891208,17.0453534 L16.1888047,17.0453534 L16.1825224,11.7660962 L13.7774501,17.0452766 L12.3211608,17.0452766 L9.90980618,11.7614151 L9.90980618,17.0452766 L6.53627124,17.0452766 L5.89895547,15.541785 L2.44541545,15.541785 L1.80166597,17.0452766 L0.00015138142,17.0452766 L2.97033052,10.3046581 L5.43474435,10.3046581 L8.25566141,16.6866702 L8.25566141,10.3046581 L10.9628153,10.3046581 L13.1334735,14.8773694 L15.1274696,10.3046581 L17.8891208,10.3046581 L17.8891208,17.0453534 Z M5.33203205,14.1428133 L4.19682279,11.4556059 L3.06789585,14.1428133 L5.33203205,14.1428133 Z M24.6558703,17.0451999 L19.1150832,17.0451999 L19.1150832,10.3045814 L24.6558703,10.3045814 L24.6558703,11.7082342 L20.7737694,11.7082342 L20.7737694,12.9232599 L24.5628464,12.9232599 L24.5628464,14.3049651 L20.7736938,14.3049651 L20.7736938,15.6511396 L24.6557946,15.6511396 L24.6558703,17.0451999 Z M32.4641239,12.1200215 C32.4641239,13.1946896 31.725761,13.7499808 31.295535,13.9166603 C31.6583963,14.0508019 31.9685011,14.2879288 32.1160223,14.4843067 C32.3502094,14.8195841 32.3906282,15.1190239 32.3906282,15.7210498 L32.3906282,17.0451999 L30.7175608,17.0451999 L30.7112784,16.19515 C30.7112784,15.7895787 30.7512431,15.2062773 30.44954,14.8819738 C30.2071783,14.6448469 29.8377319,14.593431 29.2405322,14.593431 L27.4600597,14.593431 L27.4600597,17.0452766 L25.8013735,17.0452766 L25.8013735,10.3045814 L29.6162609,10.3045814 C30.4639212,10.3045814 31.0885209,10.3262988 31.6247139,10.6274269 C32.1494776,10.928555 32.4641239,11.3681222 32.4641239,12.1200215 L32.4641239,12.1200215 Z M30.3675669,13.1208656 C30.1395108,13.2553143 29.8700519,13.2597652 29.5470039,13.2597652 L27.5321172,13.2597652 L27.5321172,11.7625662 L29.574404,11.7625662 C29.8633911,11.7625662 30.1650943,11.7751516 30.3610575,11.8841225 C30.5761705,11.9823498 30.7093105,12.191313 30.7093105,12.4800092 C30.7093105,12.7746911 30.5826042,13.0117412 30.3675669,13.1208656 L30.3675669,13.1208656 Z M35.1242739,17.0451999 L33.431981,17.0451999 L33.431981,10.3045814 L35.1242739,10.3045814 L35.1242739,17.0451999 Z M54.7705545,17.0451999 L52.4201309,17.0451999 L49.2763173,11.9859566 L49.2763173,17.0451999 L45.8983923,17.0451999 L45.2529776,15.5417082 L41.8074608,15.5417082 L41.1814229,17.0451999 L39.2401076,17.0451999 C38.4340772,17.0451999 37.4130853,16.8719975 36.8351867,16.29967 C36.2522925,15.7273425 35.9489999,14.9521142 35.9489999,13.7263449 C35.9489999,12.7266518 36.1302791,11.8127542 36.8430585,11.0905533 C37.3793272,10.5526053 38.2191156,10.3045814 39.3620453,10.3045814 L40.9678238,10.3045814 L40.9678238,11.7489065 L39.395652,11.7489065 C38.7903534,11.7489065 38.4484585,11.8363901 38.1193553,12.1481851 C37.8366505,12.4320467 37.6426552,12.9685366 37.6426552,13.6750825 C37.6426552,14.3972067 37.7903278,14.9179649 38.0985403,15.2580769 C38.3538451,15.5248254 38.8180562,15.6057095 39.2544888,15.6057095 L39.9994368,15.6057095 L42.3370687,10.3048116 L44.8223731,10.3048116 L47.6306499,16.6804543 L47.6306499,10.3048883 L50.1561461,10.3048883 L53.0716765,14.9993861 L53.0716765,10.3048883 L54.7705545,10.3048883 L54.7705545,17.0451999 Z M44.688552,14.14289 L43.5407024,11.4556826 L42.3992108,14.14289 L44.688552,14.14289 Z M58.9971238,27.8087637 C58.5942978,28.3810145 57.8092338,28.6711688 56.7463848,28.6711688 L53.5432297,28.6711688 L53.5432297,27.2253856 L56.733366,27.2253856 C57.0498289,27.2253856 57.2712242,27.1849436 57.4045912,27.0584759 C57.5306163,26.9453611 57.6017655,26.7857417 57.6007058,26.618832 C57.6007058,26.4223007 57.5201709,26.2663648 57.3980818,26.1728954 C57.2777336,26.0699102 57.1025853,26.0232522 56.8135982,26.0232522 C55.2563375,25.9718364 53.313357,26.0699102 53.313357,23.9363825 C53.313357,22.9585604 53.9524136,21.9291689 55.6929972,21.9291689 L58.9971238,21.9291689 L58.9971238,20.5877523 L55.9270329,20.5877523 C55.0008057,20.5877523 54.3277639,20.8034687 53.8512152,21.1383624 L53.8512152,20.5877523 L49.3109079,20.5877523 C48.5846556,20.5877523 47.7324539,20.7626429 47.3294008,21.1383624 L47.3294008,20.5877523 L39.221412,20.5877523 L39.221412,21.1383624 C38.5762244,20.6862098 37.4874892,20.5877523 36.9848272,20.5877523 L31.6368244,20.5877523 L31.6368244,21.1383624 C31.1262906,20.6581229 29.991157,20.5877523 29.2990412,20.5877523 L23.3136469,20.5877523 L21.9440992,22.0277032 L20.6612174,20.5877523 L11.7198738,20.5877523 L11.7198738,29.9953189 L20.4924271,29.9953189 L21.9037561,28.5324994 L23.2332634,29.9953189 L28.6407591,30 L28.6407591,27.7869695 L29.1721835,27.7869695 C29.8896558,27.7977131 30.7359536,27.7694728 31.4824911,27.4560663 L31.4824911,29.9950119 L35.9427932,29.9950119 L35.9427932,27.5430128 L36.1579062,27.5430128 C36.4325121,27.5430128 36.4595337,27.5540634 36.4595337,27.8204282 L36.4595337,29.9947049 L50.0089277,29.9947049 C50.8690769,29.9947049 51.7682825,29.7809071 52.2663274,29.392679 L52.2663274,29.9947049 L56.5640459,29.9947049 C57.4583316,29.9947049 58.3317267,29.8729184 58.9962912,29.5612002 L58.9964425,27.8084568 L58.9971238,27.8087637 Z M32.1314632,24.1900852 C32.1314632,26.0630036 30.6929613,26.4496969 29.2431814,26.4496969 L27.1735703,26.4496969 L27.1735703,28.7111503 L23.9498273,28.7111503 L21.9073892,26.4790883 L19.7848703,28.7111503 L13.2147653,28.7111503 L13.2147653,21.9688435 L19.885766,21.9688435 L21.9264633,24.1788811 L24.0363418,21.9688435 L29.336281,21.9688435 C30.6524667,21.9688435 32.1314632,22.3228455 32.1314632,24.1900852 L32.1314632,24.1900852 Z M18.9446278,27.2929936 L14.8665637,27.2929936 L14.8665637,25.951577 L18.5080437,25.951577 L18.5080437,24.5759343 L14.8665637,24.5759343 L14.8665637,23.3500883 L19.0249356,23.3500883 L20.8391662,25.3149413 L18.9446278,27.2929936 Z M25.5153383,28.0649988 L22.9688,25.3185481 L25.5153383,22.6595043 L25.5153383,28.0649988 Z M29.2814809,25.0670708 L27.1380714,25.0670708 L27.1380714,23.3500883 L29.3007064,23.3500883 C29.8995713,23.3500883 30.3152646,23.5872151 30.3152646,24.1767324 C30.3152646,24.7598803 29.9187967,25.0670708 29.2814809,25.0670708 L29.2814809,25.0670708 Z M40.5109546,21.9688435 L46.0468218,21.9688435 L46.0468218,23.3632108 L42.162753,23.3632108 L42.162753,24.5889801 L45.9519813,24.5889801 L45.9519813,25.9646228 L42.162753,25.9646228 L42.162753,27.3060394 L46.0467461,27.3121787 L46.0467461,28.7111503 L40.5108032,28.7111503 L40.5109546,21.9688435 Z M38.3826076,25.5778528 C38.7518268,25.7102295 39.0536057,25.947433 39.1950716,26.1438109 C39.4293344,26.4731026 39.4631681,26.7802931 39.4699046,27.3744916 L39.4699046,28.7111503 L37.8045576,28.7111503 L37.8045576,27.8676234 C37.8045576,27.4619753 37.8447494,26.8614074 37.5364611,26.5478474 C37.2941752,26.3063464 36.9246531,26.2486379 36.3196573,26.2486379 L34.5469808,26.2486379 L34.5469808,28.7112271 L32.8802714,28.7112271 L32.8802714,21.9689203 L36.7097672,21.9689203 C37.5494042,21.9689203 38.1609852,22.0049881 38.7054284,22.2870846 C39.2288297,22.5943519 39.55816,23.0151178 39.55816,23.7843604 C39.5580843,24.8604098 38.8191159,25.4095618 38.3826076,25.5778528 L38.3826076,25.5778528 Z M37.4451781,24.7255007 C37.223253,24.8534264 36.9489498,24.864477 36.626356,24.864477 L34.6113179,24.864477 L34.6113179,23.3502417 L36.6536047,23.3502417 C36.9489498,23.3502417 37.244522,23.3563809 37.4451781,23.4720282 C37.6601397,23.5812294 37.7886626,23.7901926 37.7886626,24.0785051 C37.7886626,24.3668943 37.660064,24.5992633 37.4451781,24.7255007 L37.4451781,24.7255007 Z M52.4183143,25.155015 C52.7415137,25.4795488 52.9143912,25.8894943 52.9143912,26.5833781 C52.9143912,28.0337656 51.9817303,28.7108434 50.3087386,28.7108434 L47.0782591,28.7108434 L47.0782591,27.2650602 L50.2958711,27.2650602 C50.6105174,27.2650602 50.8335779,27.2247717 50.973303,27.0981506 C51.0874446,26.9939375 51.1692662,26.8423759 51.1692662,26.6585066 C51.1692662,26.4619753 51.0807081,26.3061162 50.9667936,26.21257 C50.8400116,26.1097383 50.6650904,26.0630036 50.376179,26.0630036 C48.8250493,26.0115878 46.8825229,26.1097383 46.8825229,23.9762873 C46.8825229,22.9983117 47.5149188,21.9689203 49.2539128,21.9689203 L52.5791571,21.9689203 L52.5791571,23.4039598 L49.5365419,23.4039598 C49.2349901,23.4039598 49.0388755,23.4150871 48.8720532,23.5257463 C48.6903955,23.6348707 48.6230308,23.7969457 48.6230308,24.0106669 C48.6230308,24.2649835 48.7772127,24.4381091 48.9859677,24.5130074 C49.1608889,24.5720973 49.3489047,24.5893638 49.6313067,24.5893638 L50.52423,24.6128463 C51.424571,24.6340266 52.0426613,24.785358 52.4183143,25.155015 L52.4183143,25.155015 Z M59,23.3500883 L55.9770644,23.3500883 C55.6753613,23.3500883 55.4746295,23.3611388 55.3059149,23.4718748 C55.130918,23.5810759 55.0635533,23.7430742 55.0635533,23.9570256 C55.0635533,24.2113422 55.2112258,24.3843143 55.4261874,24.4592126 C55.6011844,24.5183792 55.7891244,24.5356458 56.0653198,24.5356458 L56.9643741,24.5589748 C57.8713758,24.5807689 58.4768258,24.7322539 58.8460451,25.1016806 C58.9134855,25.1530965 58.9536773,25.210805 58.9999243,25.2685903 L58.9999243,23.3500883 L59,23.3500883 Z" id="Shape" fill="#FFFFFF"></path>
                </g>
            </g>
        </g>
    </g>
</svg>