<?xml version="1.0" encoding="UTF-8"?>
<svg width="47px" height="28px" viewBox="0 0 47 28" version="1.1" xmlns="http://www.w3.org/2000/svg" xmlns:xlink="http://www.w3.org/1999/xlink">
    <title>mastercard</title>
    <g id="Design" stroke="none" stroke-width="1" fill="none" fill-rule="evenodd">
        <g id="88---Account-&amp;-User---Billing" transform="translate(-1063.000000, -937.000000)" fill-rule="nonzero">
            <g id="visa-copy" transform="translate(1021.000000, 921.000000)">
                <g id="mastercard" transform="translate(42.000000, 16.000000)">
                    <path d="M28,14 C28,21.7326017 21.7316844,28 13.99961,28 C6.26753572,28 0,21.7322897 0,14 C0,6.26817827 6.26761372,0 13.99961,0 C21.7315284,0 28,6.26849025 28,14" id="Path" fill="#D9222A"></path>
                    <path d="M32.5070572,0 C28.8487788,0 25.5150831,1.37235939 23.0022696,3.62408637 C22.490352,4.08338533 22.0125097,4.57848293 21.5726076,5.10563553 L24.4332726,5.10563553 C24.8249014,5.5764774 25.1854523,6.07173099 25.5127167,6.58843257 L20.4933212,6.58843257 C20.1914555,7.06590382 19.9190112,7.56092343 19.6775659,8.07091764 L26.3279987,8.07091764 C26.5562714,8.55330243 26.7563846,9.04816606 26.9275497,9.55309074 L19.0781727,9.55309074 C18.9133179,10.0392972 18.7759126,10.5342388 18.6666667,11.0355758 L27.3385036,11.0355758 C27.5506063,12.0097045 27.6575647,13.0034094 27.6573281,13.999922 C27.6573281,15.5547063 27.4006594,17.0503721 26.9273919,18.4471432 L19.0780149,18.4471432 C19.2487067,18.9523019 19.4487411,19.4473215 19.6771715,19.9296283 L26.327841,19.9296283 C26.086238,20.4397785 25.8136359,20.9348761 25.5116913,21.4125033 L20.4930846,21.4125033 C20.8201912,21.928815 21.180821,22.4237566 21.5725287,22.8940525 L24.4325627,22.8940525 C23.9932127,23.422219 23.5152126,23.9178626 23.0025063,24.3769275 C25.5153197,26.6282646 28.8487,28 32.5072939,28 C40.3271705,28 46.6666667,21.7324294 46.6666667,14.000312 C46.6666667,6.26897451 40.3271705,0.000623941528 32.5072939,0.000623941528" id="Path" fill="#EE9F2D"></path>
                    <path d="M44.9813618,22.102888 C44.9813618,21.8532614 45.1842871,21.6502203 45.4351253,21.6502203 C45.6859636,21.6502203 45.8888889,21.8532614 45.8888889,22.102888 C45.8888889,22.3525145 45.6859636,22.5555556 45.4351253,22.5555556 C45.1842871,22.5555556 44.9813618,22.3525145 44.9813618,22.102888 Z M45.4351253,22.446856 C45.625681,22.446778 45.7801453,22.2928195 45.7802236,22.102888 C45.7802236,21.9131125 45.6259158,21.7593881 45.4355951,21.7592317 L45.4351253,21.7592317 C45.2449612,21.7589979 45.0906534,21.9124102 45.0903401,22.1018735 L45.0903401,22.102966 C45.0901836,22.2928195 45.2444131,22.446778 45.4348122,22.4469341 C45.4348905,22.446856 45.4350471,22.446856 45.4351253,22.446856 L45.4351253,22.446856 Z M45.373825,22.3017152 L45.2808958,22.3017152 L45.2808958,21.9040607 L45.4491391,21.9040607 C45.4843692,21.9040607 45.5202256,21.9040607 45.5513063,21.923881 C45.5836397,21.9456521 45.6018811,21.9840442 45.6018811,22.0236848 C45.6018811,22.0682414 45.5754194,22.1098329 45.5326735,22.1260637 L45.6061087,22.3016372 L45.5031586,22.3016372 L45.4421714,22.1442453 L45.3739816,22.1442453 L45.373825,22.3017152 Z M45.373825,22.0762008 L45.4253392,22.0762008 C45.4445983,22.0762008 45.4648752,22.0778395 45.4821771,22.0683975 C45.4974435,22.0586434 45.5053507,22.0403838 45.5053507,22.0228264 C45.5049592,22.0065176 45.4965823,21.9914573 45.4828034,21.9824055 C45.4665976,21.9723393 45.4408404,21.9745242 45.4234603,21.9745242 L45.373825,21.9745242 L45.373825,22.0762008 Z M10.6526151,15.82867 C10.4924357,15.8100982 10.4220538,15.8051821 10.3120576,15.8051821 C9.44727635,15.8051821 9.00948378,16.1006919 9.00948378,16.6844544 C9.00948378,17.0442631 9.2231347,17.273211 9.55648963,17.273211 C10.1780267,17.273211 10.6258403,16.6833619 10.6526151,15.82867 L10.6526151,15.82867 Z M11.7620498,18.4034364 L10.4979942,18.4034364 L10.5270394,17.8044575 C10.1413874,18.2777258 9.62702809,18.502772 8.92790655,18.502772 C8.10093893,18.502772 7.53404765,17.8590024 7.53404765,16.9242488 C7.53404765,15.5177877 8.52017699,14.697118 10.2128653,14.697118 C10.3857276,14.697118 10.6075989,14.7126465 10.834559,14.7415966 C10.8818456,14.5511188 10.8942935,14.4694186 10.8942935,14.3669617 C10.8942935,13.9839773 10.6284238,13.8412555 9.91567995,13.8412555 C9.16935009,13.832828 8.55376301,14.0184677 8.30096755,14.1013384 C8.31693852,14.0054363 8.51234808,12.801392 8.51234808,12.801392 C9.27269169,12.5793109 9.774055,12.4957379 10.338441,12.4957379 C11.648374,12.4957379 12.3423285,13.0819975 12.3409976,14.1899836 C12.3435811,14.4868979 12.294259,14.8532614 12.2173791,15.3348011 C12.0849923,16.1724039 11.8008812,17.9661412 11.7620498,18.4034364 L11.7620498,18.4034364 Z M6.89575673,18.4034364 L5.3701373,18.4034364 L6.24400009,12.9413826 L4.29264461,18.4034364 L3.25304383,18.4034364 L3.12449315,12.9725957 L2.20592729,18.4034364 L0.777777778,18.4034364 L1.97066859,11.2980923 L4.16440708,11.2980923 L4.29749853,15.2752622 L5.6356156,11.2980923 L8.07565155,11.2980923 L6.89575673,18.4034364 Z M34.6860338,15.82867 C34.5265589,15.8100982 34.4557856,15.8051821 34.3461026,15.8051821 C33.4817127,15.8051821 33.0438419,16.1006919 33.0438419,16.6844544 C33.0438419,17.0442631 33.2572579,17.273211 33.5905346,17.273211 C34.2121499,17.273211 34.6602767,16.6833619 34.6860338,15.82867 L34.6860338,15.82867 Z M35.7964862,18.4034364 L34.5324306,18.4034364 L34.5610844,17.8044575 C34.1754323,18.2777258 33.6607599,18.502772 32.9622647,18.502772 C32.1351405,18.502772 31.5687189,17.8590024 31.5687189,16.9242488 C31.5687189,15.5177877 32.5542219,14.697118 34.2472234,14.697118 C34.4200857,14.697118 34.6415656,14.7126465 34.868369,14.7415966 C34.9156557,14.5511188 34.9281036,14.4694186 34.9281036,14.3669617 C34.9281036,13.9839773 34.662547,13.8412555 33.9498032,13.8412555 C33.2034733,13.832828 32.5885909,14.0184677 32.3347776,14.1013384 C32.3507486,14.0054363 32.5468628,12.801392 32.5468628,12.801392 C33.3072064,12.5793109 33.8082565,12.4957379 34.3720162,12.4957379 C35.6825755,12.4957379 36.37653,13.0819975 36.3751991,14.1899836 C36.3777043,14.4868979 36.3284605,14.8532614 36.2515806,15.3348011 C36.1197418,16.1724039 35.8350044,17.9661412 35.7964862,18.4034364 L35.7964862,18.4034364 Z M18.5423544,18.3156496 C18.1248387,18.4466665 17.7993127,18.502772 17.4463072,18.502772 C16.6663913,18.502772 16.2407335,18.0560349 16.2407335,17.2334143 C16.2296165,16.9781694 16.3529218,16.306386 16.4498437,15.6932832 C16.5379189,15.1535312 17.1113082,11.7503697 17.1113082,11.7503697 L18.6278461,11.7503697 L18.4506779,12.6249601 L19.3665819,12.6249601 L19.1597421,14.0136297 L18.2404717,14.0136297 C18.0643212,15.112564 17.813483,16.4814134 17.8105863,16.6628393 C17.8105863,16.9606121 17.9700612,17.0906926 18.3328528,17.0906926 C18.5067329,17.0906926 18.6413118,17.0729791 18.7441837,17.0360697 L18.5423544,18.3156496 Z M23.1920998,18.26883 C22.6711642,18.4275485 22.16847,18.5042546 21.6357911,18.502945 C19.9381705,18.5012894 19.053269,17.6175692 19.053269,15.9253524 C19.053269,13.9501111 20.179066,12.4960501 21.7071907,12.4960501 C22.9575457,12.4960501 23.7560944,13.3101651 23.7560944,14.5870139 C23.7560944,15.0106533 23.701292,15.4242265 23.5691401,16.0081451 L20.5492168,16.0081451 C20.4470496,16.8462942 20.9852871,17.1955685 21.8673702,17.1955685 C22.410305,17.1955685 22.8998467,17.0840598 23.444269,16.8317021 L23.1920998,18.26883 Z M22.3396882,14.8431952 C22.3480652,14.7227907 22.5005723,13.8118372 21.6340687,13.8118372 C21.1509468,13.8118372 20.8055353,14.1789029 20.6648498,14.8431952 L22.3396882,14.8431952 Z M12.6772492,14.4517052 C12.6772492,15.1826374 13.0328382,15.6866505 13.8392158,16.065109 C14.4570733,16.3545322 14.552586,16.4404462 14.552586,16.702636 C14.552586,17.0629129 14.2802182,17.225533 13.6764528,17.225533 C13.2213583,17.225533 12.797971,17.1546794 12.3096819,16.9975215 C12.3096819,16.9975215 12.109027,18.271093 12.0998672,18.3320365 C12.4466878,18.4074941 12.7559297,18.4772553 13.6874916,18.5029281 C15.29735,18.5029281 16.0407832,17.8920102 16.0407832,16.5716191 C16.0407832,15.7776366 15.7295058,15.3117034 14.965326,14.9614927 C14.3256259,14.6688702 14.252269,14.6035568 14.252269,14.3337198 C14.252269,14.0212769 14.5056908,13.8619342 14.9989121,13.8619342 C15.2983678,13.8619342 15.7074283,13.8937715 16.0949593,13.9487065 L16.3122115,12.6084952 C15.9171647,12.546069 15.3182532,12.495972 14.9695536,12.495972 C13.2627733,12.4960501 12.6720038,13.3846082 12.6772492,14.4517052 M30.612496,12.6479017 C31.0361966,12.6479017 31.4312433,12.7587861 31.9756656,13.0319005 L32.2252512,11.4897406 C32.0018141,11.4022659 31.2150088,10.8888889 30.5485338,10.8888889 C29.5275659,10.8888889 28.664507,11.3938384 28.0573751,12.2271494 C27.1720038,11.934839 26.8080379,12.5256244 26.3618684,13.114147 L25.9654907,13.2061475 C25.9954754,13.0123923 26.0225635,12.8198857 26.0134036,12.6251161 L24.6123421,12.6251161 C24.4209253,14.4133912 24.0816987,16.2246078 23.8160638,18.0152238 L23.7468563,18.4035144 L25.2731803,18.4035144 C25.527933,16.7536694 25.6675224,15.6973409 25.7523878,14.9824055 L26.327108,14.66372 C26.4129911,14.3455027 26.6816793,14.2378176 27.2209345,14.2508491 C27.1484388,14.6416368 27.112191,15.0382769 27.1126607,15.4356974 C27.1126607,17.3260391 28.1358991,18.5030061 29.7784041,18.5030061 C30.2014783,18.5030061 30.5645048,18.4474468 31.1266204,18.2955952 L31.395152,16.6757147 C30.8895611,16.9239367 30.4745506,17.0406736 30.098763,17.0406736 C29.211826,17.0406736 28.6751543,16.3880863 28.6751543,15.3095185 C28.6751543,13.7448851 29.4733898,12.6479017 30.612496,12.6479017" id="Shape" fill="#000000"></path>
                    <polygon id="Path" fill="#FFFFFF" points="7.42374483 17.8888889 5.9600955 17.8888889 6.79896609 12.5076802 4.92718305 17.8888889 3.92971478 17.8888889 3.80641109 12.5384353 2.92533789 17.8888889 1.55555556 17.8888889 2.69975672 10.8888889 4.80395445 10.8888889 4.86312821 15.2224273 6.2826976 10.8888889 8.55555556 10.8888889"></polygon>
                    <path d="M43.6360577,10.8888889 L43.3044565,12.883506 C42.8954996,12.3518153 42.456153,11.9670542 41.8761388,11.9670542 C41.121537,11.9670542 40.4346982,12.5322551 39.9850682,13.3639458 C39.3590089,13.2356668 38.7113852,13.0180019 38.7113852,13.0180019 L38.7110782,13.0230815 C38.7615743,12.5580322 38.7817574,12.2744082 38.7772296,12.1780473 L37.403552,12.1780473 C37.2164556,13.9155 36.8839336,15.6752422 36.624086,17.4149693 L36.5555556,17.7922247 L38.051406,17.7922247 C38.2534671,16.4960913 38.4081017,15.4198972 38.5220633,14.5662202 C39.0330099,14.1101171 39.288867,13.7120883 39.8052623,13.7386235 C39.5766486,14.2848707 39.4426575,14.9139837 39.4426575,15.5594727 C39.4426575,16.963036 40.1614208,17.8888889 41.2486214,17.8888889 C41.7967111,17.8888889 42.2171792,17.7022323 42.6274407,17.2694044 L42.5573754,17.791315 L43.9721099,17.791315 L45.1111111,10.8889647 L43.6360577,10.8888889 Z M41.7657841,16.4947266 C41.2566793,16.4947266 40.9996711,16.1226266 40.9996711,15.3881307 C40.9996711,14.2846432 41.4809187,13.5022323 42.1593926,13.5022323 C42.6731788,13.5022323 42.9513676,13.8891921 42.9513676,14.6022323 C42.9514444,15.7151209 42.4625226,16.4947266 41.7657841,16.4947266 L41.7657841,16.4947266 Z" id="Shape" fill="#000000"></path>
                    <path d="M10.9118914,15.3532108 C10.7511999,15.3357495 10.6800613,15.3310883 10.5698908,15.3310883 C9.70064583,15.3310883 9.2609083,15.611283 9.2609083,16.1646434 C9.2609083,16.5052868 9.47566201,16.7230351 9.81010806,16.7230351 C10.4354828,16.7229611 10.8856866,16.1637556 10.9118914,15.3532108 L10.9118914,15.3532108 Z M12.0276034,17.7936496 L10.7570232,17.7936496 L10.7859036,17.2266753 C10.3986544,17.674602 9.88093193,17.8888729 9.17891,17.8888729 C8.34735907,17.8888729 7.77777778,17.2784673 7.77777778,16.3921583 C7.77777778,15.0579965 8.76868241,14.2803767 10.4704226,14.2803767 C10.6441772,14.2803767 10.8671937,14.2951744 11.0950891,14.3226241 C11.1426198,14.1420181 11.155132,14.064626 11.155132,13.9668871 C11.155132,13.6036773 10.8882047,13.4690181 10.171782,13.4690181 C9.42128502,13.4610273 8.80283525,13.6370461 8.54842017,13.7147341 C8.56447358,13.6240981 8.76089178,12.4837864 8.76089178,12.4837864 C9.52484525,12.2723271 10.029426,12.1930853 10.5960169,12.1930853 C11.9131048,12.1930853 12.6108773,12.7492573 12.6096182,13.7989331 C12.6119003,14.0816434 12.5620875,14.4287977 12.4849682,14.8847153 C12.3522128,15.6781686 12.0663992,17.3799056 12.0276034,17.7936496 L12.0276034,17.7936496 Z M32.596429,11.2388548 L32.345319,12.7013867 C31.7984014,12.4427227 31.4010008,12.337363 30.9755067,12.337363 C29.8304421,12.337363 29.0278503,13.3774942 29.0278503,14.860817 C29.0278503,15.8834129 29.5674495,16.5019573 30.4588072,16.5019573 C30.8365345,16.5019573 31.2532936,16.3915663 31.7614943,16.1560607 L31.4922849,17.6913234 C30.926953,17.8361191 30.5624461,17.8888729 30.1367947,17.8888729 C28.4860477,17.8888729 27.4572129,16.7728294 27.4572129,14.9804565 C27.4572129,12.5721287 28.8783332,10.8888889 30.9108996,10.8888889 C31.5803425,10.8889629 32.3715238,11.1559136 32.596429,11.2388548 M35.0707789,15.3532108 C34.9101661,15.3357495 34.8393422,15.3310883 34.7286996,15.3310883 C33.8598481,15.3310883 33.4197958,15.611283 33.4197958,16.1646434 C33.4197958,16.5052868 33.6345495,16.7230351 33.9693103,16.7230351 C34.5939769,16.7229611 35.0444954,16.1637556 35.0707789,15.3532108 L35.0707789,15.3532108 Z M36.1864909,17.7936496 L34.9155959,17.7936496 L34.9447911,17.2266753 C34.5572272,17.674602 34.0398194,17.8888729 33.3377975,17.8888729 C32.5065614,17.8888729 31.936744,17.2784673 31.936744,16.3921583 C31.936744,15.0579965 32.9279634,14.2803767 34.6289953,14.2803767 C34.8031434,14.2803767 35.0257664,14.2951744 35.253898,14.3226241 C35.3011926,14.1420181 35.3139409,14.064626 35.3139409,13.9668871 C35.3139409,13.6036773 35.0469349,13.4690181 34.3306695,13.4690181 C33.5804873,13.4610273 32.9617228,13.6370461 32.707229,13.7147341 C32.7232824,13.6240981 32.9200154,12.4837864 32.9200154,12.4837864 C33.6840475,12.2723271 34.1882348,12.1930853 34.7548258,12.1930853 C36.0722284,12.1930853 36.7696861,12.7492573 36.7680336,13.7989331 C36.7706305,14.0816434 36.7211324,14.4287977 36.643777,14.8847153 C36.5114151,15.6781686 36.2248932,17.3799056 36.1864909,17.7936496 Z M18.8432991,17.7107084 C18.4232349,17.8349352 18.0960286,17.8888729 17.7415945,17.8888729 C16.957653,17.8888729 16.5297981,17.4652144 16.5297981,16.685227 C16.5189384,16.4426185 16.6429589,15.8062428 16.7403024,15.2249887 C16.8284388,14.7125439 17.4048664,11.4860506 17.4048664,11.4860506 L18.928996,11.4860506 L18.7511494,12.3156104 L19.5334384,12.3156104 L19.3252162,13.6317189 L18.5402517,13.6317189 C18.363192,14.6743658 18.1103508,15.9712373 18.1077539,16.1436307 C18.1077539,16.4270069 18.2683667,16.549236 18.6327162,16.549236 C18.8074937,16.549236 18.94261,16.5332544 19.0461702,16.4981099 L18.8432991,17.7107084 Z M23.5169663,17.6669072 C22.9936566,17.817326 22.4877381,17.8897608 21.9526244,17.888881 C20.2461626,17.8873191 19.3567722,17.0493987 19.3567722,15.4448087 C19.3567722,13.5713443 20.4883016,12.1930113 22.0243926,12.1930113 C23.2812015,12.1930113 24.083872,12.964638 24.083872,14.1759048 C24.083872,14.5779587 24.0287868,14.9700241 23.8962675,15.5233845 L20.8607564,15.5233845 C20.7579831,16.3180957 21.2989988,16.6496385 22.1857136,16.6496385 C22.7310574,16.6496385 23.2235194,16.5434649 23.7704371,16.3035939 L23.5169663,17.6669072 Z M22.6599188,14.4179214 C22.6690472,14.304127 22.8220268,13.4400146 21.9506571,13.4400146 C21.4653562,13.4400146 21.1181618,13.7890186 20.9768289,14.4179214 L22.6599188,14.4179214 Z M12.9476055,14.0476086 C12.9476055,14.7406595 13.3050299,15.2179597 14.1155698,15.5773222 C14.7366164,15.8517458 14.8326221,15.9333552 14.8326221,16.1819567 C14.8326221,16.523488 14.5585337,16.6776061 13.9522027,16.6776061 C13.4945231,16.6776061 13.0688717,16.6104245 12.5776688,16.4614855 C12.5776688,16.4614855 12.3766864,17.6690529 12.3674793,17.726764 C12.7153819,17.7983109 13.0265347,17.8636428 13.9629837,17.8888729 C15.5813878,17.8888729 16.3284222,17.3096164 16.3284222,16.0579519 C16.3284222,15.3047483 16.0159316,14.8630366 15.2474139,14.5310499 C14.6047266,14.2529269 14.5302829,14.1918863 14.5302829,13.9357379 C14.5302829,13.6397837 14.785721,13.4874412 15.2811733,13.4874412 C15.58186,13.4874412 15.9930319,13.5185904 16.3831927,13.5706784 L16.6012515,12.2996288 C16.2044805,12.240438 15.6024776,12.1930113 15.2519781,12.1930113 C13.5361518,12.1930113 12.9426478,13.0349272 12.9476055,14.0476086 M44.3029064,17.7936496 L42.8519614,17.7936496 L42.924123,17.2836465 C42.5033505,17.7066391 42.0722693,17.8888729 41.5101638,17.8888729 C40.3953961,17.8888729 39.6586705,16.9852506 39.6586705,15.6155003 C39.6586705,13.793162 40.8013743,12.2570114 42.1538741,12.2570114 C42.7487159,12.2570114 43.1988409,12.4854141 43.6178822,13.004 L43.9582302,11.0575088 L45.470792,11.0575088 L44.3029064,17.7936496 Z M42.040792,16.5277793 C42.7549327,16.5277793 43.2566017,15.7669549 43.2566017,14.6815427 C43.2566017,13.9856802 42.9710242,13.6080426 42.4440946,13.6080426 C41.7486829,13.6080426 41.254647,14.3712346 41.254647,15.4485081 C41.2545683,16.1651613 41.5188201,16.5277793 42.040792,16.5277793 Z M37.5677138,12.3156844 C37.3756237,14.0112803 37.0347248,15.7287768 36.7680336,17.4255565 L36.6978393,17.7937236 L38.2316482,17.7937236 C38.7802971,14.4438914 38.9129738,13.7896845 39.7730904,13.8716638 C39.9101739,13.1860118 40.1651398,12.5855206 40.3553413,12.2824635 C39.7129688,12.1566829 39.3542852,12.4979922 38.884723,13.14628 C38.9217875,12.8660113 38.989621,12.5938074 38.9761645,12.3157583 L37.5677138,12.3156844 Z M24.9437525,12.3156844 C24.751269,14.0112803 24.4102914,15.7287768 24.1436788,17.4255565 L24.0737993,17.7937236 L25.6083165,17.7937236 C26.1562571,14.4438914 26.2886978,13.7896845 27.1483422,13.8716638 C27.2860552,13.1860118 27.5410999,12.5855206 27.7305931,12.2824635 C27.0889288,12.1566829 26.7298518,12.4979922 26.260683,13.14628 C26.2977475,12.8660113 26.3648728,12.5938074 26.3521245,12.3157583 L24.9437525,12.3156844 Z M44.9766771,17.3647379 C44.9763627,17.1280485 45.180178,16.9359742 45.4318389,16.9356779 L45.4327832,16.9356779 C45.6843653,16.9353823 45.8886528,17.1270127 45.8888889,17.3635541 L45.8888889,17.3647379 C45.8888102,17.6015753 45.6846801,17.7935017 45.4327832,17.7936496 C45.1808863,17.7935017 44.9767561,17.6015753 44.9766771,17.3647379 L44.9766771,17.3647379 Z M45.4327832,17.6906577 C45.6240863,17.6908055 45.7791906,17.5449741 45.7792695,17.3651819 L45.7792695,17.3648859 C45.7795054,17.1848717 45.6244011,17.0388923 45.4330979,17.0387443 L45.4327832,17.0387443 C45.2411653,17.0388183 45.0859823,17.1847977 45.0859036,17.3648859 C45.086061,17.5448261 45.2413226,17.6906577 45.4327832,17.6906577 Z M45.3710877,17.5522249 L45.2776002,17.5522249 L45.2776002,17.1762151 L45.4470266,17.1762151 C45.4821238,17.1762151 45.5185587,17.176881 45.549013,17.1950082 C45.5818281,17.2159469 45.6004784,17.2517574 45.6004784,17.2892696 C45.6004784,17.331813 45.5739587,17.3715449 45.5305988,17.3867125 L45.6046491,17.552151 L45.5007741,17.552151 L45.4394721,17.4035079 L45.371009,17.4035079 L45.3710877,17.5522249 Z M45.3710877,17.3429935 L45.4224744,17.3429935 C45.4418329,17.3429935 45.462844,17.3444546 45.4798417,17.3353036 C45.4952656,17.3256912 45.5031349,17.307543 45.5031349,17.2900869 C45.5024266,17.2739381 45.4941639,17.2590197 45.4805499,17.2498687 C45.4644965,17.2408715 45.4378982,17.2434092 45.420507,17.2434092 L45.371009,17.2434092 L45.3710877,17.3429935 Z" id="Shape" fill="#FFFFFF"></path>
                </g>
            </g>
        </g>
    </g>
</svg>