<?xml version="1.0" encoding="UTF-8"?>
<svg width="60px" height="60px" viewBox="0 0 60 60" version="1.1" xmlns="http://www.w3.org/2000/svg" xmlns:xlink="http://www.w3.org/1999/xlink">
    <title>Swift_logo</title>
    <g id="Design" stroke="none" stroke-width="1" fill="none" fill-rule="evenodd">
        <g id="37---API-Key-Manager---Language" transform="translate(-943.000000, -549.000000)" fill-rule="nonzero">
            <g id="Unofficial_JavaScript_logo_2-Copy" transform="translate(943.000000, 549.000000)">
                <g id="Group" transform="translate(0.000000, 0.000000)">
                    <path d="M59.9958131,16.6188135 C59.9922772,16.0153875 59.9856095,15.4122647 59.9689403,14.8081315 C59.9337834,13.4939904 59.8560947,12.1679283 59.6225235,10.8678298 C59.3855174,9.54752609 58.9980842,8.3198629 58.3874854,7.12048689 C57.7881005,5.94262933 57.0045459,4.86478712 56.069857,3.93009819 C55.1353701,2.99540927 54.0575279,2.21195568 52.8791652,1.61226767 C51.6807994,1.00237608 50.4529342,0.6150439 49.1338428,0.378037824 C47.8330371,0.14375944 46.506975,0.0665758755 45.1918236,0.0310148616 C44.5879936,0.0146487131 43.9847697,0.0077789718 43.3811417,0.00404102431 C42.664668,0 41.9476893,0 41.2314177,0 L25.3485758,0 L18.7686769,0 C18.0516982,0 17.3355277,0 16.6192561,0.00414204992 C16.015426,0.00787999741 15.411495,0.0147497387 14.8085741,0.0311158872 C14.4798368,0.0400061407 14.1503923,0.05152306 13.8207457,0.0673840804 C12.8319071,0.115068167 11.8415531,0.202455318 10.8664539,0.37813885 C9.87711012,0.55594392 8.93898633,0.818206397 8.02632099,1.19553704 C7.72213288,1.3212129 7.42067247,1.45982003 7.12103052,1.61226767 C6.2372585,2.06203368 5.40985877,2.61514888 4.65731902,3.2578738 C4.40647244,3.47214911 4.16390995,3.69632494 3.93033875,3.92999717 C2.99544777,4.86468609 2.21189316,5.9425283 1.61250823,7.12038586 C1.00190945,8.31976188 0.614981376,9.54742506 0.377773249,10.8677287 C0.144404095,12.1678273 0.0668164287,13.4938894 0.031457466,14.8080305 C0.0148892663,15.4121636 0.00791849939,16.0152865 0.00397850068,16.6187125 C-1.4974624e-15,17.3353881 -1.4974624e-15,18.0521648 -1.4974624e-15,18.7686384 L-1.4974624e-15,28.5498368 L-1.4974624e-15,41.2310762 C-1.4974624e-15,41.948257 -0.000668677273,42.6643265 0.00397850068,43.3815073 C0.00791849939,43.9849332 0.0148892663,44.5880561 0.031457466,45.191179 C0.0668164287,46.5060273 0.14430307,47.8323925 0.377773249,49.1318849 C0.614981376,50.4517844 1.00190945,51.6805589 1.61250823,52.8796318 C2.21189316,54.0577925 2.99544777,55.1353316 3.93033875,56.0696164 C4.86452254,57.0047094 5.94266783,57.788062 7.12113154,58.3881541 C8.31959833,58.9981467 9.54736254,59.3849738 10.866757,59.6219799 C12.1667545,59.8559552 13.4938269,59.9337449 14.8086752,59.9689018 C15.411596,59.9849649 16.0155271,59.9921377 16.6193571,59.9955726 C17.3356287,60.0007249 18.0517992,60.0000505 18.768778,60.0000505 L41.2314177,60.0000505 C41.9476893,60.0000505 42.664668,60.0007249 43.3810406,59.9955726 C43.9846686,59.9921377 44.5878925,59.9849649 45.1917226,59.9689018 C46.506874,59.9337449 47.8329361,59.8558541 49.1337418,59.6219799 C50.4528332,59.3849738 51.6806984,58.9980457 52.8790642,58.3881541 C54.0574269,57.788163 55.1352691,57.0047094 56.0697559,56.0696164 C57.0044449,55.1352306 57.7881005,54.0577925 58.3873844,52.8796318 C58.9979832,51.6805589 59.3854164,50.4518854 59.6224225,49.1318849 C59.8559937,47.8323925 59.9336824,46.5060273 59.9688393,45.191179 C59.9854075,44.5880561 59.9920752,43.9850342 59.9957121,43.3815073 C60,42.6643265 60,41.948257 60,41.2310762 L60,18.7686384 C60,18.0521648 60,17.3353881 59.9958131,16.6188135 Z" id="Path" fill="#F05138"></path>
                    <path d="M47.5432957,37.036695 C47.5418813,37.0348765 47.540568,37.0335632 47.5390526,37.0318458 C47.6054264,36.8059525 47.6739218,36.5814736 47.7320115,36.3499229 C50.2222927,26.428299 44.1444911,14.6982157 33.8595791,8.52201514 C38.3666346,14.6319429 40.3594657,22.0324727 38.5888909,28.5043752 C38.4309879,29.0816356 38.2411608,29.63566 38.0313306,30.1741265 C37.8036189,30.0245076 37.5167062,29.8546835 37.1313945,29.6422267 C37.1313945,29.6422267 26.9006322,23.3253985 15.8121625,12.1524714 C15.5212088,11.859194 21.7249893,21.019489 28.7655649,28.4579035 C25.4484901,26.5963046 16.2042429,19.8703227 10.3520315,14.514046 C11.0710308,15.7131189 11.9262125,16.8677406 12.8662558,17.9793254 C17.7533696,24.1771454 24.1267721,31.8242788 31.7623886,37.6963922 C26.3975247,40.9795224 18.8168662,41.2348141 11.269142,37.6998271 C9.40228977,36.8249453 7.64727291,35.7693287 6.02268011,34.5699527 C9.21761495,39.6803331 14.1382692,44.0894947 20.1271683,46.6635262 C27.2691736,49.7327852 34.3713749,49.5246724 39.6610757,46.7138369 L39.6569337,46.7198985 C39.6810788,46.7046436 39.7117906,46.6879744 39.7368449,46.6725175 C39.95405,46.5557319 40.1696386,46.4368247 40.3804791,46.3112499 C42.9219803,44.9920575 47.9419427,43.6536702 50.6363967,48.8962931 C51.296296,50.1793184 52.6985314,43.3798908 47.5432957,37.036695 Z" id="Path" fill="#FFFFFF"></path>
                </g>
            </g>
        </g>
    </g>
</svg>