<?xml version="1.0" encoding="UTF-8"?>
<svg width="71px" height="22px" viewBox="0 0 71 22" version="1.1" xmlns="http://www.w3.org/2000/svg" xmlns:xlink="http://www.w3.org/1999/xlink">
    <title>visa</title>
    <g id="Design" stroke="none" stroke-width="1" fill="none" fill-rule="evenodd">
        <g id="88---Account-&amp;-User---Billing" transform="translate(-407.000000, -940.000000)" fill-rule="nonzero">
            <g id="visa" transform="translate(377.000000, 921.000000)">
                <g transform="translate(30.000000, 19.000000)">
                    <path d="M25.060339,21.7487207 L28.652641,0.435710397 L34.398558,0.435710397 L30.8035639,21.7487207 L25.060339,21.7487207 Z M51.5629749,0.895155144 C50.42484,0.463364181 48.6409115,0 46.413316,0 C40.7354566,0 36.7363164,2.89069134 36.7020722,7.03364181 C36.6700894,10.096135 39.5573702,11.8046815 41.73683,12.824061 C43.9735788,13.8690256 44.7253357,14.5351116 44.7145671,15.467828 C44.7002449,16.8965705 42.9284848,17.5489385 41.2767948,17.5489385 C38.9771573,17.5489385 37.7553503,17.2259118 35.8682584,16.4304845 L35.1275932,16.0917801 L34.321347,20.8628198 C35.6634394,21.4580294 38.1450665,21.9732172 40.7219958,22 C46.7621114,22 50.6831791,19.1422972 50.7277612,14.7180185 C50.7491907,12.2934132 49.2184322,10.4485574 45.9033144,8.92727273 C43.8949679,7.94131737 42.6649768,7.28339684 42.6780068,6.28502994 C42.6780068,5.39912901 43.7191164,4.45182363 45.9688953,4.45182363 C47.8475877,4.422319 49.2089558,4.83658138 50.2694489,5.26837235 L50.7842964,5.51431682 L51.5629749,0.895155144 Z M66.3493587,0.435383778 L61.9094592,0.435383778 C60.5340918,0.435383778 59.5046123,0.814915623 58.9007084,2.2028307 L50.3671203,21.7346761 L56.4008824,21.7346761 C56.4008824,21.7346761 57.3871797,19.1085465 57.6103054,18.5318454 C58.2696676,18.5318454 64.1312396,18.5409907 64.9691454,18.5409907 C65.1410125,19.2872074 65.6682439,21.7346761 65.6682439,21.7346761 L71,21.7346761 L66.3493587,0.434730539 L66.3493587,0.435383778 Z M59.3048545,14.1980403 C59.7801811,12.9700599 61.5942618,8.24006532 61.5942618,8.24006532 C61.5604484,8.29678824 62.0660348,7.0060969 62.3560336,6.20587915 L62.7443498,8.04344039 C62.7443498,8.04344039 63.8445791,13.1309744 64.0745967,14.1977137 L59.3048545,14.1977137 L59.3048545,14.1980403 Z M20.18248,0.435383778 L14.5570637,14.969951 L13.9577903,12.016331 C12.910435,8.61143168 9.64765261,4.92248231 6,3.07566685 L11.1438438,21.7147523 L17.2232648,21.7078933 L26.2693313,0.435057158 L20.18248,0.435057158" id="Shape" fill="#0E4595"></path>
                    <path d="M9.36677982,1 L0.073661472,1 L0,1.45895974 C7.22994908,3.28488257 12.0137324,7.69745429 14,13 L11.9792779,2.86299569 C11.63052,1.46617149 10.6187008,1.04924267 9.36699583,1.00056342" id="Path" fill="#F2AE14"></path>
                </g>
            </g>
        </g>
    </g>
</svg>