<?xml version="1.0" encoding="UTF-8"?>
<svg width="352px" height="304px" viewBox="0 0 352 304" version="1.1" xmlns="http://www.w3.org/2000/svg" xmlns:xlink="http://www.w3.org/1999/xlink">
    <title>404</title>
    <defs>
        <rect id="path-1" x="0" y="0" width="352" height="304"></rect>
        <linearGradient x1="50%" y1="100.004407%" x2="50%" y2="-3.13124773e-15%" id="linearGradient-3">
            <stop stop-color="#808080" stop-opacity="0.25" offset="0%"></stop>
            <stop stop-color="#808080" stop-opacity="0.12" offset="54%"></stop>
            <stop stop-color="#808080" stop-opacity="0.1" offset="100%"></stop>
        </linearGradient>
        <linearGradient x1="36.8835867%" y1="103.528257%" x2="64.0456762%" y2="4.65100432%" id="linearGradient-4">
            <stop stop-color="#808080" stop-opacity="0.25" offset="0%"></stop>
            <stop stop-color="#808080" stop-opacity="0.12" offset="54%"></stop>
            <stop stop-color="#808080" stop-opacity="0.1" offset="100%"></stop>
        </linearGradient>
        <linearGradient x1="36.9621375%" y1="102.990254%" x2="64.124227%" y2="4.11300106%" id="linearGradient-5">
            <stop stop-color="#808080" stop-opacity="0.25" offset="0%"></stop>
            <stop stop-color="#808080" stop-opacity="0.12" offset="54%"></stop>
            <stop stop-color="#808080" stop-opacity="0.1" offset="100%"></stop>
        </linearGradient>
        <linearGradient x1="50%" y1="100%" x2="50%" y2="-9.17895279e-15%" id="linearGradient-6">
            <stop stop-color="#808080" stop-opacity="0.25" offset="0%"></stop>
            <stop stop-color="#808080" stop-opacity="0.12" offset="54%"></stop>
            <stop stop-color="#808080" stop-opacity="0.1" offset="100%"></stop>
        </linearGradient>
    </defs>
    <g id="Design" stroke="none" stroke-width="1" fill="none" fill-rule="evenodd">
        <g id="106---Pages---Error-404" transform="translate(-1015.000000, -281.000000)">
            <g id="404" transform="translate(1015.000000, 281.000000)">
                <mask id="mask-2" fill="white">
                    <use xlink:href="#path-1"></use>
                </mask>
                <g id="Mask"></g>
                <g mask="url(#mask-2)" fill-rule="nonzero">
                    <g id="Group" opacity="0.8" transform="translate(120.225919, 8.354167)" fill="url(#linearGradient-3)">
                        <ellipse id="Oval" cx="61.2740816" cy="47.275" rx="61.2740816" ry="47.275"></ellipse>
                    </g>
                    <ellipse id="Oval" fill="#5151F9" cx="181" cy="55.5" rx="60" ry="46.5"></ellipse>
                    <path d="M130.505835,60.8850109 C130.505835,35.1524982 157.246471,14.2918175 190.235348,14.2918175 C200.477418,14.2350549 210.617381,16.3425793 220,20.4782042 C209.501453,13.3384504 195.766168,9 180.733684,9 C147.744807,9 121,29.8606807 121,55.5931933 C121,72.8713975 133.058521,87.9530775 150.973204,96 C138.43084,87.4574946 130.505835,74.8957277 130.505835,60.8850109 Z" id="Path" fill="#FFFFFF" opacity="0.1"></path>
                    <polygon id="Path" fill="#335EEA" opacity="0.2" points="181 74 247.5 189.002091 314 304 181 304 48 304 114.5 189.002091"></polygon>
                    <g id="Group" opacity="0.3" transform="translate(143.035505, 187.126213)" fill="url(#linearGradient-4)">
                        <path d="M54.0946336,49.8263012 L59.2817371,34.4952956 C62.9438348,23.5341117 58.9818959,11.4767815 49.5217371,4.79278164 L49.563806,4.76764198 C47.5235105,3.33704138 45.2860963,2.20802395 42.9211164,1.41568667 L42.9211164,1.41568667 L42.8495991,1.39054701 L42.7696681,1.36540734 L42.7696681,1.36540734 C40.4740611,0.592107474 38.0808234,0.143596954 35.6600129,0.0330051045 C34.803778,-0.0110017015 33.9458341,-0.0110017015 33.0895991,0.0330051045 C31.6039449,0.110449473 30.1276048,0.313697028 28.6765647,0.640547005 C28.255875,0.732725775 27.8351854,0.837474379 27.4523578,0.950602868 C27.0695302,1.06373136 26.6404267,1.18523974 26.2407716,1.31512801 C25.4414612,1.57909449 24.6547716,1.87658053 23.8849095,2.215966 C23.497875,2.38356377 23.1150474,2.55954142 22.7406336,2.74808891 C21.6084765,3.3048318 20.5187802,3.94341141 19.4802888,4.65870343 C19.1311164,4.89753025 18.7903578,5.14473695 18.453806,5.3961336 C14.2954786,8.54568278 11.1825732,12.8663371 9.51835776,17.7983682 L1.36539224,41.9533961 C0.0822409591,45.7416057 -0.303634501,49.7741029 0.23794397,53.735519 C0.322081901,54.3430609 0.427254315,54.9464129 0.549254315,55.5455749 C0.671254315,56.1447369 0.822702591,56.735519 0.969943974,57.3221112 C1.08353017,57.711776 1.20132328,58.1014408 1.33173707,58.4869157 C1.52525431,59.060938 1.75242672,59.6349604 1.96697845,60.1964129 C2.12263362,60.5693179 2.28670259,60.942223 2.45918535,61.310938 C2.79994397,62.0441783 3.17856466,62.7606587 3.58663362,63.4603794 C3.99470259,64.1601 4.42801293,64.8430609 4.91601293,65.5050721 C5.26939224,65.9994855 5.64380603,66.485519 6.03084052,66.9547928 C6.55249569,67.5832844 7.09939224,68.211776 7.67994397,68.7690386 C10.1926676,71.2921266 13.1998753,73.2731645 16.5144267,74.588871 L16.5144267,74.588871 L16.5144267,74.588871 L16.6574612,74.6475302 C16.8354521,74.3330608 17.0321234,74.0294487 17.2464267,73.7383123 C18.5084957,72.0162453 20.7044957,70.8053514 22.7953233,71.2578654 C22.9467716,71.291385 23.0982198,71.3374744 23.2496681,71.3835637 C24.309806,71.7564688 25.3531164,72.4226699 26.3753923,72.7494855 C27.1280384,73.0863081 27.9914876,73.0755776 28.7354612,72.7201559 C30.7800129,71.6349604 30.0227716,68.211776 31.7770474,66.711776 C31.8587194,66.6425746 31.9444076,66.5782176 32.0336681,66.5190386 C32.0088559,66.4886279 31.9863566,66.4564155 31.9663578,66.4226699 C33.3209785,65.5846811 35.1972543,66.1419436 36.7580129,66.6824464 C38.4407716,67.2732285 40.6367716,67.6712732 41.8062888,66.3011615 C42.5971854,65.362614 42.5382888,63.9338431 43.2913233,62.9492062 C44.1663578,61.8179213 45.8154612,61.692223 47.2415991,61.8933403 L47.3131164,61.91429 C50.0475991,63.037195 53.0344957,61.1726699 52.8241509,58.235519 C52.575944,54.3179213 53.8127716,50.6265805 54.0946336,49.8263012 Z" id="Path"></path>
                    </g>
                    <path d="M160.397671,259.119169 C161.615345,257.441395 163.704572,256.266953 165.706226,256.724146 C167.707881,257.18134 169.605282,259.098197 171.385921,258.137671 C173.821267,256.829007 172.09484,252.017991 176.048108,251.661464 C176.871916,251.606701 177.696822,251.750499 178.454264,252.080907 C180.122309,252.7646 182.7328,253.536376 184.017195,251.997018 C184.771986,251.09102 184.717774,249.711051 185.439204,248.771498 C186.273227,247.680945 187.86204,247.542529 189.217327,247.75225 L189.284049,247.773222 C191.89871,248.859581 194.759408,247.055974 194.555073,244.220536 C194.292356,240.445545 195.485008,236.888664 195.743555,236.116888 L200.69765,221.306339 C205.084475,208.088686 198.031311,193.789501 184.91377,189.306995 L184.91377,189.306995 C171.774082,184.900418 157.563147,191.995789 153.108313,205.187126 L145.29769,228.478822 C141.083615,241.195174 147.448519,255.012299 159.818026,260 C159.99394,259.695235 160.187488,259.401119 160.397671,259.119169 L160.397671,259.119169 Z" id="Path" fill="#FFFFFF"></path>
                    <circle id="Oval" fill="#000000" opacity="0.2" cx="169.5" cy="203.5" r="2.5"></circle>
                    <circle id="Oval" fill="#000000" opacity="0.2" cx="185.5" cy="208.5" r="2.5"></circle>
                    <ellipse id="Oval" fill="#E0E0E0" transform="translate(174.152298, 216.206976) rotate(-71.400000) translate(-174.152298, -216.206976) " cx="174.152298" cy="216.206976" rx="4.08121045" ry="2.72220083"></ellipse>
                    <circle id="Oval" fill="#FFFFFF" cx="231" cy="204" r="4"></circle>
                    <circle id="Oval" fill="#FFFFFF" cx="244" cy="197" r="2"></circle>
                    <g id="Group" opacity="0.5" transform="translate(148.035505, 23.126213)">
                        <g id="Path" opacity="0.3" fill="url(#linearGradient-5)">
                            <path d="M54.0946336,49.8263012 L59.2817371,34.4952956 C62.9438348,23.5341117 58.9818959,11.4767815 49.5217371,4.79278164 L49.563806,4.76764198 C47.5235105,3.33704138 45.2860963,2.20802395 42.9211164,1.41568667 L42.9211164,1.41568667 L42.8495991,1.39054701 L42.7696681,1.36540734 L42.7696681,1.36540734 C40.4740611,0.592107474 38.0808234,0.143596954 35.6600129,0.0330051045 C34.803778,-0.0110017015 33.9458341,-0.0110017015 33.0895991,0.0330051045 C31.6039449,0.110449473 30.1276048,0.313697028 28.6765647,0.640547005 C28.255875,0.732725775 27.8351854,0.837474379 27.4523578,0.950602868 C27.0695302,1.06373136 26.6404267,1.18523974 26.2407716,1.31512801 C25.4414612,1.57909449 24.6547716,1.87658053 23.8849095,2.215966 C23.497875,2.38356377 23.1150474,2.55954142 22.7406336,2.74808891 C21.6084765,3.3048318 20.5187802,3.94341141 19.4802888,4.65870343 C19.1311164,4.89753025 18.7903578,5.14473695 18.453806,5.3961336 C14.2954786,8.54568278 11.1825732,12.8663371 9.51835776,17.7983682 L1.36539224,41.9533961 C0.0822409591,45.7416057 -0.303634501,49.7741029 0.23794397,53.735519 C0.322081901,54.3430609 0.427254315,54.9464129 0.549254315,55.5455749 C0.671254315,56.1447369 0.822702591,56.735519 0.969943974,57.3221112 C1.08353017,57.711776 1.20132328,58.1014408 1.33173707,58.4869157 C1.52525431,59.060938 1.75242672,59.6349604 1.96697845,60.1964129 C2.12263362,60.5693179 2.28670259,60.942223 2.45918535,61.310938 C2.79994397,62.0441783 3.17856466,62.7606587 3.58663362,63.4603794 C3.99470259,64.1601 4.42801293,64.8430609 4.91601293,65.5050721 C5.26939224,65.9994855 5.64380603,66.485519 6.03084052,66.9547928 C6.55249569,67.5832844 7.09939224,68.1908263 7.67994397,68.7690386 C10.1926676,71.2921266 13.1998753,73.2731645 16.5144267,74.588871 L16.5144267,74.588871 L16.5144267,74.588871 L16.6574612,74.6475302 C16.8354521,74.3330608 17.0321234,74.0294487 17.2464267,73.7383123 C18.5084957,72.0162453 20.7044957,70.8053514 22.7953233,71.2578654 C22.9467716,71.291385 23.0982198,71.3374744 23.2496681,71.3835637 C24.309806,71.7564688 25.3531164,72.4226699 26.3753923,72.7494855 C27.1280384,73.0863081 27.9914876,73.0755776 28.7354612,72.7201559 C30.7800129,71.6349604 30.0227716,68.211776 31.7770474,66.711776 C31.8587194,66.6425746 31.9444076,66.5782176 32.0336681,66.5190386 C32.0088559,66.4886279 31.9863566,66.4564155 31.9663578,66.4226699 C33.3209785,65.5846811 35.1972543,66.1419436 36.7580129,66.6824464 C38.4407716,67.2732285 40.6367716,67.6712732 41.8062888,66.3011615 C42.5971854,65.362614 42.5382888,63.9338431 43.2913233,62.9492062 C44.1663578,61.8179213 45.8154612,61.692223 47.2415991,61.8933403 L47.3131164,61.8933403 C50.0475991,63.0162453 53.0344957,61.1517202 52.8241509,58.2145693 C52.575944,54.3179213 53.8127716,50.6265805 54.0946336,49.8263012 Z"></path>
                        </g>
                        <path d="M17.721806,72.4478095 C18.9502198,70.7718319 21.057875,69.5986475 23.0771854,70.0553514 C25.0964957,70.5120554 27.0106336,72.4268598 28.8069785,71.4673626 C31.263806,70.1601 29.5221509,65.3542341 33.5102888,64.9980889 C34.3413636,64.9433845 35.1735457,65.087029 35.9376681,65.4170833 C37.6204267,66.1000442 40.253944,66.8709939 41.5496681,65.3332844 C42.3111164,64.4282565 42.2564267,63.0497649 42.9842198,62.1112174 C43.8255991,61.0218319 45.4284267,60.8835637 46.7956681,61.0930609 L46.8629785,61.1140107 C49.5007026,62.1992062 52.3866336,60.3975302 52.1804957,57.565128 C51.9154612,53.7941783 53.1186336,50.2411056 53.3794612,49.4701559 L58.3772543,34.6754632 C62.8027738,21.4719623 55.6873961,7.1880857 42.4541509,2.71037941 L42.4541509,2.71037941 C29.1985635,-1.69147974 14.8622793,5.39629431 10.3681509,18.5735079 L2.48863362,41.8402676 C-1.76261225,54.5430048 4.65843472,68.3453366 17.1370474,73.3276978 C17.3145133,73.0232589 17.5097687,72.7294576 17.721806,72.4478095 Z" id="Path" fill="#FFFFFF"></path>
                        <ellipse id="Oval" fill="#000000" opacity="0.2" cx="27.035875" cy="16.2480889" rx="2.73868966" ry="2.72765363"></ellipse>
                        <ellipse id="Oval" fill="#000000" opacity="0.2" cx="42.609806" cy="21.4645693" rx="2.73868966" ry="2.72765363"></ellipse>
                    </g>
                    <path d="M238.440589,41 C239.22061,44.0148396 239.613973,47.1166566 239.611205,50.2307692 C239.611205,75.9384615 212.71222,96.779021 179.527995,96.779021 C152.368874,96.7622378 129.42229,82.806993 122,63.6573427 C127.513222,84.9594406 151.789859,101 180.912594,101 C214.096819,101 241,80.1594406 241,54.4517483 C240.991451,49.847622 240.123444,45.2855553 238.440589,41 L238.440589,41 Z" id="Path" fill="#000000" opacity="0.1"></path>
                    <g id="Group" opacity="0.8" transform="translate(57.342357, 43.112500)" fill="url(#linearGradient-6)">
                        <ellipse id="Oval" cx="123.657643" cy="32.2541667" rx="123.657643" ry="32.2541667"></ellipse>
                    </g>
                    <path d="M181,44 C114.728091,44 61,57.8767032 61,75 L301,75 C301,57.8767032 247.271908,44 181,44 Z" id="Path" fill="#FFFFFF"></path>
                    <path d="M181,107 C247.271908,107 301,93.1214429 301,76 L61,76 C61,93.1214429 114.728091,107 181,107 Z" id="Path" fill="#FFFFFF"></path>
                    <path d="M181,107 C247.271908,107 301,93.1214429 301,76 L61,76 C61,93.1214429 114.728091,107 181,107 Z" id="Path" fill="#000000" opacity="0.05"></path>
                    <rect id="Rectangle" fill="#000000" opacity="0.05" x="124" y="68" width="114" height="16" rx="8"></rect>
                    <path d="M56.5076364,24.0490379 C55.7411728,23.7148359 55.3463324,22.8603712 55.588842,22.0606968 C55.607656,22.0010335 55.6196837,21.9394425 55.6246974,21.8770887 L55.6246974,21.8770887 C55.6481902,21.5131281 55.4294287,21.1770357 55.0869358,21.0509032 C54.7444429,20.9247708 54.3597095,21.0386095 54.1411806,21.3307427 L54.1411806,21.3307427 C54.1052928,21.3809199 54.0752208,21.435005 54.0515421,21.4919595 C53.718618,22.2593111 52.8620479,22.654475 52.0615679,22.4099999 C52.0017345,22.3916816 51.9401456,22.3796741 51.877809,22.374174 L51.877809,22.374174 C51.5135495,22.3507005 51.1771811,22.5692825 51.050945,22.9114943 C50.924709,23.2537062 51.0386412,23.6381238 51.3310143,23.8564734 L51.3310143,23.8564734 C51.3805205,23.8946318 51.4347523,23.9262411 51.4923636,23.9505165 C52.2588272,24.2847185 52.6536676,25.1391833 52.411158,25.9388577 C52.3927734,25.9971003 52.3807516,26.05716 52.3753026,26.1179876 L52.3753026,26.1179876 C52.3495574,26.4828146 52.5675671,26.820941 52.9106765,26.9483362 C53.253786,27.0757315 53.6398793,26.9619063 53.8588194,26.6688118 L53.8588194,26.6688118 C53.8956506,26.6176269 53.9257748,26.561943 53.9484579,26.5031167 C54.289472,25.7445208 55.1438548,25.3599795 55.9384321,25.6074675 C55.9982655,25.6257859 56.0598543,25.6377933 56.122191,25.6432935 L56.122191,25.6432935 C56.4864505,25.666767 56.8228189,25.448185 56.949055,25.1059732 C57.075291,24.7637613 56.9613588,24.3793437 56.6689857,24.1609941 L56.6689857,24.1609941 C56.6205267,24.1165446 56.566247,24.0788812 56.5076364,24.0490379 Z" id="Path" fill="#4D8AF0" opacity="0.5"></path>
                    <path d="M269.50579,152.049038 C268.745245,151.706791 268.35957,150.854491 268.606045,150.060697 C268.62493,150.001033 268.637002,149.939442 268.642035,149.877089 L268.642035,149.877089 C268.665616,149.513128 268.446034,149.177036 268.102257,149.050903 C267.75848,148.924771 267.372305,149.03861 267.152956,149.330743 L267.152956,149.330743 C267.116934,149.38092 267.086749,149.435005 267.062982,149.49196 C266.72881,150.259311 265.869028,150.654475 265.065547,150.41 C265.00549,150.391682 264.94367,150.379674 264.8811,150.374174 L264.8811,150.374174 C264.515474,150.3507 264.177845,150.569282 264.051136,150.911494 C263.924426,151.253706 264.038786,151.638124 264.332255,151.856473 L264.332255,151.856473 C264.381947,151.894632 264.436382,151.926241 264.494209,151.950517 C265.254755,152.292763 265.640429,153.145063 265.393954,153.938858 C265.375501,153.9971 265.363434,154.05716 265.357965,154.117988 L265.357965,154.117988 C265.332123,154.482815 265.55095,154.820941 265.895346,154.948336 C266.239741,155.075731 266.627282,154.961906 266.847043,154.668812 L266.847043,154.668812 C266.884012,154.617627 266.914249,154.561943 266.937018,154.503117 C267.27931,153.744521 268.136896,153.359979 268.934452,153.607468 C268.99451,153.625786 269.056329,153.637793 269.1189,153.643293 L269.1189,153.643293 C269.484525,153.666767 269.822154,153.448185 269.948864,153.105973 C270.075573,152.763761 269.961214,152.379344 269.667744,152.160994 L269.667744,152.160994 C269.619104,152.116545 269.564621,152.078881 269.50579,152.049038 L269.50579,152.049038 Z" id="Path" fill="#4D8AF0" opacity="0.5"></path>
                    <path d="M34.5076364,211.049038 C33.7411728,210.714836 33.3463324,209.860371 33.588842,209.060697 C33.607656,209.001033 33.6196837,208.939442 33.6246974,208.877089 L33.6246974,208.877089 C33.6481902,208.513128 33.4294287,208.177036 33.0869358,208.050903 C32.7444429,207.924771 32.3597095,208.03861 32.1411806,208.330743 L32.1411806,208.330743 C32.1052928,208.38092 32.0752208,208.435005 32.0515421,208.49196 C31.718618,209.259311 30.8620479,209.654475 30.0615679,209.41 C30.0017345,209.391682 29.9401456,209.379674 29.877809,209.374174 L29.877809,209.374174 C29.5135495,209.3507 29.1771811,209.569282 29.050945,209.911494 C28.924709,210.253706 29.0386412,210.638124 29.3310143,210.856473 L29.3310143,210.856473 C29.3805205,210.894632 29.4347523,210.926241 29.4923636,210.950517 C30.2588272,211.284719 30.6536676,212.139183 30.411158,212.938858 C30.3927734,212.9971 30.3807516,213.05716 30.3753026,213.117988 L30.3753026,213.117988 C30.3495574,213.482815 30.5675671,213.820941 30.9106765,213.948336 C31.253786,214.075731 31.6398793,213.961906 31.8588194,213.668812 L31.8588194,213.668812 C31.8956506,213.617627 31.9257748,213.561943 31.9484579,213.503117 C32.289472,212.744521 33.1438548,212.359979 33.9384321,212.607468 C33.9982655,212.625786 34.0598543,212.637793 34.122191,212.643293 L34.122191,212.643293 C34.4864505,212.666767 34.8228189,212.448185 34.949055,212.105973 C35.075291,211.763761 34.9613588,211.379344 34.6689857,211.160994 L34.6689857,211.160994 C34.6205267,211.116545 34.566247,211.078881 34.5076364,211.049038 Z" id="Path" fill="#4D8AF0" opacity="0.5"></path>
                    <path d="M11.4852268,73.0490379 C10.727522,72.706791 10.3432879,71.8544913 10.588842,71.0606968 C10.607656,71.0010335 10.6196837,70.9394425 10.6246974,70.8770887 L10.6246974,70.8770887 C10.6481902,70.5131281 10.4294287,70.1770357 10.0869358,70.0509032 C9.7444429,69.9247708 9.35970953,70.0386095 9.1411806,70.3307427 L9.1411806,70.3307427 C9.10529279,70.3809199 9.07522083,70.435005 9.05154212,70.4919595 C8.71861804,71.2593111 7.86204791,71.654475 7.06156791,71.4099999 C7.00173446,71.3916816 6.94014565,71.3796741 6.87780903,71.374174 L6.87780903,71.374174 C6.51354949,71.3507005 6.17718109,71.5692825 6.05094504,71.9114943 C5.92470899,72.2537062 6.03864122,72.6381238 6.33101432,72.8564734 L6.33101432,72.8564734 C6.38052054,72.8946318 6.43475231,72.9262411 6.49236358,72.9505165 C7.25882721,73.2847185 7.65366759,74.1391833 7.41115798,74.9388577 C7.39277336,74.9971003 7.38075156,75.05716 7.37530258,75.1179876 L7.37530258,75.1179876 C7.34955741,75.4828146 7.56756707,75.820941 7.91067653,75.9483362 C8.25378599,76.0757315 8.63987931,75.9619063 8.85881939,75.6688118 L8.85881939,75.6688118 C8.89565062,75.6176269 8.92577479,75.561943 8.94845787,75.5031167 C9.28947198,74.7445208 10.1438548,74.3599795 10.9384321,74.6074675 C10.9982655,74.6257859 11.0598543,74.6377933 11.122191,74.6432935 L11.122191,74.6432935 C11.4864505,74.666767 11.8228189,74.448185 11.949055,74.1059732 C12.075291,73.7637613 11.9613588,73.3793437 11.6689857,73.1609941 L11.6689857,73.1609941 C11.6136392,73.1147612 11.551706,73.0770281 11.4852268,73.0490379 Z" id="Path" fill="#4D8AF0" opacity="0.5"></path>
                    <path d="M265.507121,3.02453968 C264.762185,2.6850426 264.384426,1.83959094 264.625842,1.05217433 C264.644339,0.992990441 264.656164,0.931894285 264.661093,0.870041491 L264.661093,0.870041491 C264.68419,0.509005207 264.469115,0.175613259 264.132394,0.0504942442 C263.795673,-0.0746247709 263.417423,0.0382992909 263.202577,0.328085244 L263.202577,0.328085244 C263.167294,0.377859319 263.137729,0.431509869 263.114449,0.488006759 C262.779182,1.24050757 261.939197,1.62195917 261.158011,1.37645962 C261.099185,1.35828845 261.038635,1.34637746 260.977348,1.34092151 L260.977348,1.34092151 C260.584823,1.25790962 260.191078,1.47670184 260.051099,1.85561017 C259.91112,2.2345185 260.066976,2.65966723 260.417737,2.85573364 L260.417737,2.85573364 C260.466408,2.89358549 260.519726,2.92494075 260.576367,2.94902119 C261.321302,3.28851828 261.699061,4.13396993 261.457645,4.92138655 C261.439571,4.97916116 261.427751,5.03873827 261.422394,5.09907712 L261.422394,5.09907712 C261.384052,5.47563939 261.607195,5.82947509 261.961697,5.95424364 C262.316199,6.0790122 262.709298,5.94206541 262.911755,5.62326431 L262.911755,5.62326431 C262.947966,5.57249069 262.977582,5.51725412 262.999883,5.45890053 C263.33515,4.70639972 264.175135,4.32494812 264.956322,4.57044767 C265.015147,4.58861884 265.075698,4.60052983 265.136984,4.60598578 L265.136984,4.60598578 C265.495105,4.62927067 265.825805,4.41244492 265.949913,4.07298268 C266.074022,3.73352043 265.96201,3.3521915 265.674564,3.13559629 L265.674564,3.13559629 C265.624208,3.09082279 265.567838,3.05343548 265.507121,3.02453968 L265.507121,3.02453968 Z" id="Path" fill="#4D8AF0" opacity="0.5"></path>
                    <g id="Group" opacity="0.5" transform="translate(43.000001, 107.377778)" fill="#47E6B1">
                        <rect id="Rectangle" x="2.8823525" y="0" width="1.23529412" height="7.55555556"></rect>
                        <polygon id="Rectangle" transform="translate(3.500000, 3.777778) rotate(90.000000) translate(-3.500000, -3.777778) " points="2.83333333 0.27777822 4.16666667 0.27777822 4.16666667 7.27777822 2.83333333 7.27777822"></polygon>
                    </g>
                    <g id="Group" opacity="0.5" transform="translate(345.000001, 74.377778)" fill="#47E6B1">
                        <rect id="Rectangle" x="2.8823525" y="0" width="1.23529412" height="7.55555556"></rect>
                        <polygon id="Rectangle" transform="translate(3.500000, 3.777778) rotate(90.000000) translate(-3.500000, -3.777778) " points="2.83333333 0.27777822 4.16666667 0.27777822 4.16666667 7.27777822 2.83333333 7.27777822"></polygon>
                    </g>
                    <g id="Group" opacity="0.5" transform="translate(303.000001, 190.377778)" fill="#47E6B1">
                        <rect id="Rectangle" x="2.8823525" y="0" width="1.23529412" height="7.55555556"></rect>
                        <polygon id="Rectangle" transform="translate(3.500000, 3.777778) rotate(90.000000) translate(-3.500000, -3.777778) " points="2.83333333 0.27777822 4.16666667 0.27777822 4.16666667 7.27777822 2.83333333 7.27777822"></polygon>
                    </g>
                    <circle id="Oval" fill="#F55F44" opacity="0.5" cx="302.5" cy="34.5" r="2.5"></circle>
                    <circle id="Oval" fill="#F55F44" opacity="0.5" cx="2.5" cy="5.5" r="2.5"></circle>
                    <circle id="Oval" fill="#F55F44" opacity="0.5" cx="78.5" cy="149.5" r="2.5"></circle>
                    <ellipse id="Oval" fill="#000000" opacity="0.05" cx="98" cy="65" rx="14" ry="3"></ellipse>
                    <ellipse id="Oval" fill="#000000" opacity="0.05" cx="98" cy="87" rx="14" ry="3"></ellipse>
                    <ellipse id="Oval" fill="#000000" opacity="0.05" cx="260" cy="65" rx="14" ry="3"></ellipse>
                    <ellipse id="Oval" fill="#000000" opacity="0.05" cx="260" cy="87" rx="14" ry="3"></ellipse>
                    <ellipse id="Oval" fill="#000000" opacity="0.05" cx="181" cy="52" rx="14" ry="3"></ellipse>
                    <ellipse id="Oval" fill="#000000" opacity="0.05" cx="191" cy="22" rx="14" ry="3"></ellipse>
                    <ellipse id="Oval" fill="#000000" opacity="0.05" cx="164" cy="34" rx="14" ry="3"></ellipse>
                    <ellipse id="Oval" fill="#000000" opacity="0.05" cx="217" cy="39" rx="14" ry="3"></ellipse>
                    <ellipse id="Oval" fill="#000000" opacity="0.05" cx="181" cy="96" rx="14" ry="3"></ellipse>
                </g>
            </g>
        </g>
    </g>
</svg>