<?xml version="1.0" encoding="UTF-8"?>
<svg width="545px" height="166px" viewBox="0 0 545 166" version="1.1" xmlns="http://www.w3.org/2000/svg" xmlns:xlink="http://www.w3.org/1999/xlink">
    <title>Theme/Logo/White</title>
    <g id="Theme/Logo/White" stroke="none" stroke-width="1" fill="none" fill-rule="evenodd">
        <path d="M136.369609,58.644717 C142.099789,57.1271157 145.591553,51.184422 143.276592,45.7025355 C139.504282,36.7690768 134.029752,28.6227992 127.126486,21.7398201 C120.22322,14.856841 112.074779,9.41976551 103.156048,5.69947647 C97.6826322,3.41635287 91.7971314,6.97196125 90.3323518,12.7425057 L90.3323518,12.7425057 C88.8675722,18.5130502 92.4080136,24.2903164 97.7405991,26.8882377 C103.000726,29.4506836 107.827587,32.8776095 112.011982,37.0498928 C116.196376,41.2221761 119.644294,46.0453401 122.235712,51.3117601 C124.862432,56.6498779 130.639059,60.1623183 136.369609,58.644717 L136.369609,58.644717 Z M138.333454,69.0212661 C144.162017,68.6569822 149.313822,73.0147638 148.985078,78.8661709 C148.2145,92.570559 143.685248,105.877091 135.794388,117.285409 C131.362923,123.692167 125.995267,129.321285 119.915156,134.013143 L129.746415,146.298807 C133.930458,151.527122 133.083908,159.157346 127.855593,163.34139 C122.627277,167.525433 114.997053,166.678883 110.81301,161.450567 L95.464039,142.271706 C93.5709021,140.944865 92.0908073,138.929978 91.4036789,136.495588 C90.4487794,133.112307 91.2495493,129.683215 93.1567282,126.880322 C93.8846443,125.64589 94.8445775,124.520496 96.0296199,123.572147 C97.1366387,122.686237 98.3513394,122.025859 99.6182092,121.584851 C106.917296,117.608094 113.237774,111.960171 118.025093,105.038458 C123.054605,97.7669477 126.167952,89.413836 127.162488,80.7431111 C127.840716,74.8297604 132.119839,69.5624593 138.059762,69.0418127 Z M78.6913418,10.5756548 C79.0237869,4.66020292 74.450148,-0.483440839 68.5142677,0.03625441 C61.8519333,0.61953433 55.2817582,2.08650763 48.9809718,4.41046429 C39.2986477,7.98181568 30.4610551,13.5000303 23.0204036,20.6204747 C15.5801252,27.7409191 9.69648095,36.3107528 5.73762303,45.7939205 C1.77869048,55.2774592 -0.170534854,65.4706681 0.0116943204,75.7369586 C0.193923495,86.003249 2.50372679,96.1215215 6.79663422,105.460381 C11.0896909,114.798869 17.2736924,123.156878 24.9624651,130.011706 C32.6508647,136.866905 41.6787458,142.071648 51.481959,145.300963 C57.8610995,147.402522 64.4794064,148.63786 71.158531,148.986945 C77.1089627,149.298191 81.4971636,143.997366 80.954655,138.09705 L80.954655,138.09705 C80.4125195,132.197104 75.1247392,127.963938 69.2022911,127.310656 C65.493905,126.901844 61.8288002,126.107592 58.2685406,124.934578 C51.2823427,122.633065 44.8483544,118.923712 39.3687933,114.038376 C33.8896052,109.15304 29.4823755,103.196707 26.4228357,96.5414623 C23.3632959,89.8858463 21.7171143,82.6748846 21.5872704,75.3581957 C21.4574265,68.0418779 22.8465322,60.7774961 25.6680249,54.0187498 C28.4895175,47.2603744 32.6822064,41.1530557 37.9849112,36.0785241 C43.287616,31.0036215 49.5857906,27.070943 56.4861721,24.5260722 C60.0027773,23.2287817 63.6372867,22.3065443 67.3285095,21.7675214 C73.2244665,20.9072364 78.3585236,16.4911808 78.6913418,10.5756548 L78.6913418,10.5756548 Z" id="Icon" fill="#FFFFFF" fill-rule="nonzero"></path>
        <g id="Text" transform="translate(189.000000, 37.000000)" fill="#FFFFFF" fill-rule="nonzero">
            <path d="M59.9118388,69.6629213 L41.2229219,50.8764045 C40.2691016,49.917603 39.7921914,48.8539326 39.7921914,47.6853933 C39.7921914,46.5168539 40.2691016,45.4531835 41.2229219,44.494382 C42.1767422,43.5355805 43.2348866,43.0561798 44.3973552,43.0561798 C45.5598237,43.0561798 46.6179681,43.5355805 47.5717884,44.494382 L66.2607053,63.3707865 C67.1549118,64.329588 67.6169186,65.3782772 67.6467254,66.5168539 C67.6765323,67.6554307 67.2145256,68.7041199 66.2607053,69.6629213 C65.306885,70.6217228 64.2487406,71.1011236 63.086272,71.1011236 C61.9238035,71.1011236 60.8656591,70.6217228 59.9118388,69.6629213 Z M35.5,72 C30.2539882,72 25.4550798,71.1161049 21.1032746,69.3483146 C16.7514694,67.5805243 13.0107053,65.093633 9.88098237,61.8876404 C6.75125945,58.6816479 4.32199832,54.8764045 2.59319899,50.4719101 C0.864399664,46.0674157 0,41.2284644 0,35.9550562 C0,30.6816479 0.864399664,25.8576779 2.59319899,21.4831461 C4.32199832,17.1086142 6.75125945,13.3183521 9.88098237,10.1123596 C13.0107053,6.90636704 16.7514694,4.41947566 21.1032746,2.65168539 C25.4550798,0.883895131 30.2539882,0 35.5,0 C40.7460118,0 45.5300168,0.883895131 49.8520151,2.65168539 C54.1740134,4.41947566 57.9147775,6.90636704 61.0743073,10.1123596 C64.2338371,13.3183521 66.6780017,17.1086142 68.406801,21.4831461 C70.1356003,25.8576779 71,30.6816479 71,35.9550562 C71,41.2284644 70.1356003,46.0674157 68.406801,50.4719101 C66.6780017,54.8764045 64.2338371,58.6816479 61.0743073,61.8876404 C57.9147775,65.093633 54.1740134,67.5805243 49.8520151,69.3483146 C45.5300168,71.1161049 40.7460118,72 35.5,72 Z M35.5,63.5505618 C39.374895,63.5505618 42.9368178,62.8464419 46.1857683,61.4382022 C49.4347187,60.0299625 52.2514694,58.082397 54.6360202,55.5955056 C57.0205709,53.1086142 58.8536944,50.1872659 60.1353904,46.8314607 C61.4170865,43.4756554 62.0579345,39.8501873 62.0579345,35.9550562 C62.0579345,32.0599251 61.4170865,28.4344569 60.1353904,25.0786517 C58.8536944,21.7228464 57.0205709,18.8014981 54.6360202,16.3146067 C52.2514694,13.8277154 49.4347187,11.8951311 46.1857683,10.5168539 C42.9368178,9.13857678 39.374895,8.4494382 35.5,8.4494382 C31.625105,8.4494382 28.0631822,9.13857678 24.8142317,10.5168539 C21.5652813,11.8951311 18.7634341,13.8277154 16.4086902,16.3146067 C14.0539463,18.8014981 12.2208228,21.7228464 10.9093199,25.0786517 C9.59781696,28.4344569 8.94206549,32.0599251 8.94206549,35.9550562 C8.94206549,39.8501873 9.59781696,43.4756554 10.9093199,46.8314607 C12.2208228,50.1872659 14.0539463,53.1086142 16.4086902,55.5955056 C18.7634341,58.082397 21.5652813,60.0299625 24.8142317,61.4382022 C28.0631822,62.8464419 31.625105,63.5505618 35.5,63.5505618 Z" id="Shape"></path>
            <path d="M105.544465,72 C100.742287,72 96.5033273,70.9339339 92.8275862,68.8018018 C89.1518451,66.6696697 86.2616455,63.7267267 84.1569873,59.972973 C82.0523291,56.2192192 81,51.9099099 81,47.045045 C81,42.1201201 82.0523291,37.7807808 84.1569873,34.027027 C86.2616455,30.2732733 89.1518451,27.3303303 92.8275862,25.1981982 C96.5033273,23.0660661 100.742287,22 105.544465,22 C110.287356,22 114.496673,23.0660661 118.172414,25.1981982 C121.848155,27.3303303 124.738355,30.2732733 126.843013,34.027027 C128.947671,37.7807808 130,42.1201201 130,47.045045 C130,51.9099099 128.962492,56.2192192 126.887477,59.972973 C124.812462,63.7267267 121.937084,66.6696697 118.261343,68.8018018 C114.585602,70.9339339 110.346642,72 105.544465,72 Z M105.544465,63.8918919 C108.627344,63.8918919 111.354507,63.1711712 113.725953,61.7297297 C116.097399,60.2882883 117.950091,58.3063063 119.284029,55.7837838 C120.617967,53.2612613 121.284936,50.3483483 121.284936,47.045045 C121.284936,43.7417417 120.617967,40.8138138 119.284029,38.2612613 C117.950091,35.7087087 116.097399,33.7117117 113.725953,32.2702703 C111.354507,30.8288288 108.627344,30.1081081 105.544465,30.1081081 C102.461585,30.1081081 99.7344223,30.8288288 97.3629764,32.2702703 C94.9915306,33.7117117 93.1240169,35.7087087 91.7604356,38.2612613 C90.3968542,40.8138138 89.7150635,43.7417417 89.7150635,47.045045 C89.7150635,50.3483483 90.3968542,53.2612613 91.7604356,55.7837838 C93.1240169,58.3063063 94.9915306,60.2882883 97.3629764,61.7297297 C99.7344223,63.1711712 102.461585,63.8918919 105.544465,63.8918919 Z" id="Shape"></path>
            <path d="M164.544465,72 C159.920145,72 155.755293,70.9150743 152.049909,68.7452229 C148.344525,66.5753715 145.409861,63.6178344 143.245917,59.8726115 C141.081972,56.1273885 140,51.9065817 140,47.2101911 C140,42.5138004 140.993043,38.3078556 142.979129,34.5923567 C144.965215,30.8768577 147.677556,27.9341826 151.116152,25.7643312 C154.554749,23.5944798 158.437992,22.5095541 162.76588,22.5095541 C166.263763,22.5095541 169.494858,23.2377919 172.459165,24.6942675 C175.423472,26.1507431 177.913491,28.1273885 179.92922,30.6242038 L179.92922,6.5477707 C179.92922,5.18046709 180.359044,4.08067941 181.218693,3.24840764 C182.078342,2.41613588 183.160315,2 184.46461,2 C185.828191,2 186.924985,2.41613588 187.754991,3.24840764 C188.584997,4.08067941 189,5.18046709 189,6.5477707 L189,47.2101911 C189,51.9065817 187.918028,56.1273885 185.754083,59.8726115 C183.590139,63.6178344 180.670296,66.5753715 176.994555,68.7452229 C173.318814,70.9150743 169.168784,72 164.544465,72 Z M164.544465,63.9745223 C167.568058,63.9745223 170.265578,63.2462845 172.637024,61.7898089 C175.008469,60.3333333 176.875983,58.3269639 178.239564,55.7707006 C179.603146,53.2144374 180.284936,50.3609342 180.284936,47.2101911 C180.284936,44 179.603146,41.1464968 178.239564,38.6496815 C176.875983,36.1528662 175.008469,34.1762208 172.637024,32.7197452 C170.265578,31.2632696 167.568058,30.5350318 164.544465,30.5350318 C161.580157,30.5350318 158.897459,31.2632696 156.49637,32.7197452 C154.095281,34.1762208 152.198125,36.1528662 150.8049,38.6496815 C149.411676,41.1464968 148.715064,44 148.715064,47.2101911 C148.715064,50.3609342 149.411676,53.2144374 150.8049,55.7707006 C152.198125,58.3269639 154.095281,60.3333333 156.49637,61.7898089 C158.897459,63.2462845 161.580157,63.9745223 164.544465,63.9745223 Z" id="Shape"></path>
            <path d="M220.610136,72 C216.48538,72 212.794022,71.1109102 209.536062,69.3327306 C206.278103,67.5545509 203.707602,64.9475588 201.824561,61.5117541 C199.94152,58.0759494 199,53.8565401 199,48.8535262 L199,26.6112116 C199,25.2851115 199.433398,24.1850512 200.300195,23.3110307 C201.166992,22.4370102 202.25796,22 203.573099,22 C204.888239,22 205.979207,22.4370102 206.846004,23.3110307 C207.712801,24.1850512 208.146199,25.2851115 208.146199,26.6112116 L208.146199,48.8535262 C208.146199,52.2290536 208.773879,55.0168776 210.02924,57.2169982 C211.2846,59.4171187 212.988304,61.0446052 215.140351,62.0994575 C217.292398,63.1543098 219.71345,63.681736 222.403509,63.681736 C224.974009,63.681736 227.260559,63.1693791 229.263158,62.1446655 C231.265757,61.1199518 232.864847,59.7335744 234.060429,57.9855335 C235.25601,56.2374925 235.853801,54.278481 235.853801,52.1084991 L241.502924,52.1084991 C241.502924,55.8456902 240.591293,59.2212176 238.768031,62.2350814 C236.944769,65.2489451 234.463938,67.6298975 231.325536,69.3779385 C228.187135,71.1259795 224.615335,72 220.610136,72 Z M240.426901,71.5479204 C239.111761,71.5479204 238.020793,71.1109102 237.153996,70.2368897 C236.287199,69.3628692 235.853801,68.2628089 235.853801,66.9367089 L235.853801,26.6112116 C235.853801,25.2248342 236.287199,24.1097046 237.153996,23.2658228 C238.020793,22.4219409 239.111761,22 240.426901,22 C241.801819,22 242.907732,22.4219409 243.744639,23.2658228 C244.581546,24.1097046 245,25.2248342 245,26.6112116 L245,66.9367089 C245,68.2628089 244.581546,69.3628692 243.744639,70.2368897 C242.907732,71.1109102 241.801819,71.5479204 240.426901,71.5479204 Z" id="Shape"></path>
            <path d="M279.455535,72 C274.831216,72 270.681186,70.9150743 267.005445,68.7452229 C263.329704,66.5753715 260.424682,63.6178344 258.290381,59.8726115 C256.15608,56.1273885 255.059286,51.9065817 255,47.2101911 L255,6.5477707 C255,5.18046709 255.429825,4.08067941 256.289474,3.24840764 C257.149123,2.41613588 258.231095,2 259.53539,2 C260.898972,2 261.995765,2.41613588 262.825771,3.24840764 C263.655777,4.08067941 264.07078,5.18046709 264.07078,6.5477707 L264.07078,30.6242038 C266.145796,28.1273885 268.650635,26.1507431 271.585299,24.6942675 C274.519964,23.2377919 277.736237,22.5095541 281.23412,22.5095541 C285.562008,22.5095541 289.445251,23.5944798 292.883848,25.7643312 C296.322444,27.9341826 299.034785,30.8768577 301.020871,34.5923567 C303.006957,38.3078556 304,42.5138004 304,47.2101911 C304,51.9065817 302.918028,56.1273885 300.754083,59.8726115 C298.590139,63.6178344 295.670296,66.5753715 291.994555,68.7452229 C288.318814,70.9150743 284.139141,72 279.455535,72 Z M279.455535,63.9745223 C282.479129,63.9745223 285.176649,63.2462845 287.548094,61.7898089 C289.91954,60.3333333 291.801875,58.3269639 293.1951,55.7707006 C294.588324,53.2144374 295.284936,50.3609342 295.284936,47.2101911 C295.284936,44 294.588324,41.1464968 293.1951,38.6496815 C291.801875,36.1528662 289.91954,34.1762208 287.548094,32.7197452 C285.176649,31.2632696 282.479129,30.5350318 279.455535,30.5350318 C276.491228,30.5350318 273.80853,31.2632696 271.407441,32.7197452 C269.006352,34.1762208 267.124017,36.1528662 265.760436,38.6496815 C264.396854,41.1464968 263.715064,44 263.715064,47.2101911 C263.715064,50.3609342 264.396854,53.2144374 265.760436,55.7707006 C267.124017,58.3269639 269.006352,60.3333333 271.407441,61.7898089 C273.80853,63.2462845 276.491228,63.9745223 279.455535,63.9745223 Z" id="Shape"></path>
            <path d="M324.852192,93 C324.26085,93 323.55124,92.8196628 322.723361,92.4589884 C320.121455,91.2567404 319.411845,89.3631998 320.594529,86.7783665 L347.64843,24.6522006 C348.831114,22.1274797 350.693842,21.4061309 353.236613,22.4881541 C355.897652,23.6302898 356.63683,25.5238304 355.454146,28.168776 L328.311543,90.2047734 C327.601933,92.0682578 326.448816,93 324.852192,93 Z M335.318947,69.3758266 C334.195397,69.8567258 333.145765,69.9018101 332.170051,69.5110795 C331.194336,69.1203489 330.410808,68.3539158 329.819466,67.2117802 L309.506865,27.9884388 C308.915523,26.8463032 308.841605,25.7492519 309.285111,24.6972849 C309.728618,23.6453179 310.512146,22.8788848 311.635696,22.3979855 C312.759246,21.9170863 313.823662,21.872002 314.828944,22.2627326 C315.834225,22.6534633 316.60297,23.4198964 317.135178,24.562032 L336.560766,63.7853733 C337.152108,64.9275089 337.373861,66.0245603 337.226026,67.0765273 C337.07819,68.1284943 336.442497,68.8949274 335.318947,69.3758266 Z" id="Shape"></path>
        </g>
    </g>
</svg>